# xmcd
#
# Track frame offsets: 
#        150
#        15102
#        26850
#        37918
#        68501
#        80054
#        98210
#        110734
#        127919
#        143356
#
# Disc length: 2214 seconds
#
# Revision: 0
# Processed by: cddbd v1.5.2PL0 Copyright (c) Steve Scherf et al.
# Submitted via: ExactAudioCopy v0.99pb3
#
DISCID=7208a40a
DTITLE=James Cotton Band - 100% Cotton (CA LP Buddah)
DYEAR=1974
DGENRE=Blues
TTITLE0=Boogie Thing
TTITLE1=One More Mile
TTITLE2=All Walks Of Life
TTITLE3=Creeper Creeps Again
TTITLE4=Rocket 88
TTITLE5=How Long Can A Fool Go Wrong
TTITLE6=I Don't Know
TTITLE7=Burner
TTITLE8='Fatuation
TTITLE9=Fever
EXTD=
EXTT0=
EXTT1=
EXTT2=
EXTT3=
EXTT4=
EXTT5=
EXTT6=
EXTT7=
EXTT8=
EXTT9=
PLAYORDER=
